<?xml version="1.0" encoding="UTF-8"?>
<svg width="452px" height="264px" viewBox="0 0 452 264" version="1.1" xmlns="http://www.w3.org/2000/svg" xmlns:xlink="http://www.w3.org/1999/xlink">
    <!-- Generator: Sketch 53.2 (72643) - https://sketchapp.com -->
    <title>Group 3</title>
    <desc>Created with Sketch.</desc>
    <g id="Page-1" stroke="none" stroke-width="1" fill="none" fill-rule="evenodd">
        <g id="TutorEye---MathematicsTutor" transform="translate(-791.000000, -132.000000)">
            <g id="Group-3" transform="translate(792.000000, 132.000000)">
                <path d="M53.5646216,175.941081 C60.8527563,174.200078 68.8804952,176.397197 74.506061,181.323725 C80.1316268,186.250254 83.3264502,193.712785 83.395474,201.183416 C83.4368973,205.652965 82.3310242,210.28911 79.4423742,213.712636 C77.6166605,215.876162 75.16877,217.453915 72.5727156,218.592611 C63.6498921,222.506875 52.6214968,221.123064 44.9626345,215.127188 C30.7786048,204.020864 35.9016361,180.160463 53.5646216,175.941081 Z" id="Stroke-300" stroke="#000000" stroke-width="1.87644615" stroke-linecap="round" stroke-linejoin="round" transform="translate(60.085620, 198.073734) rotate(-4.000000) translate(-60.085620, -198.073734) "></path>
                <path d="M59.3606646,140.359604 C58.8858726,176.803428 60.5135629,207.365957 60.4739792,248.503077" id="Stroke-302" stroke="#000000" stroke-width="1.87644615" stroke-linecap="round" stroke-linejoin="round" transform="translate(59.874235, 194.431340) rotate(-4.000000) translate(-59.874235, -194.431340) "></path>
                <path d="M1.73415862,199.203509 C38.285261,199.627056 77.3420237,197.954698 118.599941,197.936789" id="Stroke-304" stroke="#000000" stroke-width="1.87644615" stroke-linecap="round" stroke-linejoin="round" transform="translate(60.167050, 198.604503) rotate(-4.000000) translate(-60.167050, -198.604503) "></path>
                <path d="M39.784743,180.379578 C38.8993964,182.463499 38.3841277,184.702101 38.2677349,186.96115 C40.5063027,186.063502 42.8476351,185.416451 45.2313404,185.039774" id="Stroke-306" stroke="#000000" stroke-width="1.87644615" stroke-linecap="round" stroke-linejoin="round" transform="translate(41.749538, 183.670364) rotate(-4.000000) translate(-41.749538, -183.670364) "></path>
                <path d="M112.576467,190.910333 C111.063789,189.866282 114.287338,191.621668 114.745478,191.819711 C116.357379,192.517298 117.98733,192.879333 119.148501,194.106202 C117.150408,195.071777 115.018314,196.577268 114.037996,198.590199" id="Stroke-308" stroke="#000000" stroke-width="1.87644615" stroke-linecap="round" stroke-linejoin="round" transform="translate(115.662081, 194.585663) rotate(-4.000000) translate(-115.662081, -194.585663) "></path>
                <path d="M51.7673011,148.170062 C53.0057766,144.997368 54.243263,141.823687 55.4817385,138.650992 C57.2136732,141.801878 58.9465977,144.952764 60.678533,148.102663" id="Stroke-310" stroke="#000000" stroke-width="1.87644615" stroke-linecap="round" stroke-linejoin="round" transform="translate(56.222917, 143.410527) rotate(-4.000000) translate(-56.222917, -143.410527) "></path>
                <path d="M69.0614917,150.647389 C65.878695,154.322774 65.3669274,160.055915 67.8504006,164.225724" id="Stroke-312" stroke="#000000" stroke-width="1.87644615" stroke-linecap="round" stroke-linejoin="round" transform="translate(67.671809, 157.436557) rotate(-4.000000) translate(-67.671809, -157.436557) "></path>
                <path d="M71.4541344,155.895459 C70.8355567,157.244955 70.4908307,159.058093 71.6125884,160.029388 C72.432638,160.740356 73.813516,160.590375 74.5485055,159.792463 C75.2844855,158.993565 75.3546714,157.703664 74.8139043,156.765518 C74.2721467,155.82836 73.201582,155.253756 72.1168049,155.188391 C71.6991263,155.163024 71.1178914,155.480217 71.3383695,155.83534" id="Stroke-314" stroke="#000000" stroke-width="1.87644615" stroke-linecap="round" stroke-linejoin="round" transform="translate(73.023579, 157.836484) rotate(-4.000000) translate(-73.023579, -157.836484) "></path>
                <path d="M78.0751572,159.377759 L78.0731739,162.22096" id="Stroke-316" stroke="#000000" stroke-width="1.87644615" stroke-linecap="round" stroke-linejoin="round" transform="translate(78.074166, 160.799359) rotate(-4.000000) translate(-78.074166, -160.799359) "></path>
                <path d="M81.1532473,156.721118 C81.4299563,155.926487 81.7887996,155.159432 82.2218463,154.437721 C82.3799791,156.194256 82.5381119,157.950792 82.6972345,159.707327" id="Stroke-318" stroke="#000000" stroke-width="1.87644615" stroke-linecap="round" stroke-linejoin="round" transform="translate(81.925241, 157.072524) rotate(-4.000000) translate(-81.925241, -157.072524) "></path>
                <path d="M83.8788526,147.3508 C87.2937483,151.493314 88.4417654,157.388133 86.8287749,162.510176 C86.7573494,162.739182 86.3909705,162.957538 86.3624321,162.71972" id="Stroke-320" stroke="#000000" stroke-width="1.87644615" stroke-linecap="round" stroke-linejoin="round" transform="translate(85.713594, 155.086730) rotate(-4.000000) translate(-85.713594, -155.086730) "></path>
                <path d="M88.6694047,173.374471 C87.4256293,175.631345 87.2197777,178.43028 88.1178254,180.841588 C88.3480197,181.45724 88.6672956,182.073817 89.2074646,182.450429 C90.4925933,183.344633 92.3996304,182.371226 93.034102,180.939809 C93.6675831,179.509378 93.4103937,177.862455 93.1412523,176.322124 C92.9263325,175.093608 92.6511105,173.756578 91.6866075,172.962813 C90.7211148,172.169048 88.8650257,172.47134 88.6919382,173.707034" id="Stroke-322" stroke="#000000" stroke-width="1.87644615" stroke-linecap="round" stroke-linejoin="round" transform="translate(90.496902, 177.658864) rotate(-4.000000) translate(-90.496902, -177.658864) "></path>
                <path d="M87.4338644,178.684884 C87.4918141,177.909156 88.5233366,177.695271 89.3033001,177.695714 C91.0582166,177.698438 92.8151121,177.702148 94.5700286,177.704872" id="Stroke-324" stroke="#000000" stroke-width="1.87644615" stroke-linecap="round" stroke-linejoin="round" transform="translate(91.001947, 178.190299) rotate(-4.000000) translate(-91.001947, -178.190299) "></path>
                <path d="M54.3882683,252.540239 C54.4330042,252.260921 53.896517,252.282019 53.8428742,252.55937 C53.7892315,252.83672 54.0216656,253.079331 54.2333525,253.26669 C55.6182213,254.490442 57.0040805,255.713207 58.3879601,256.935973" id="Stroke-326" stroke="#000000" stroke-width="1.87644615" stroke-linecap="round" stroke-linejoin="round" transform="translate(56.111508, 254.638377) rotate(-4.000000) translate(-56.111508, -254.638377) "></path>
                <path d="M60.48138,250.768654 C59.3036747,254.797918 58.1269585,258.828168 56.9482634,262.857433" id="Stroke-328" stroke="#000000" stroke-width="1.87644615" stroke-linecap="round" stroke-linejoin="round" transform="translate(58.714822, 256.813044) rotate(-4.000000) translate(-58.714822, -256.813044) "></path>
                <path d="M123.053946,184.478167 C125.42583,186.859828 127.350012,189.685896 128.693005,192.765012" id="Stroke-330" stroke="#000000" stroke-width="1.87644615" stroke-linecap="round" stroke-linejoin="round" transform="translate(125.873476, 188.621589) rotate(-4.000000) translate(-125.873476, -188.621589) "></path>
                <path d="M122.70774,192.27754 C124.747566,189.662861 126.787392,187.047194 128.827218,184.431528" id="Stroke-332" stroke="#000000" stroke-width="1.87644615" stroke-linecap="round" stroke-linejoin="round" transform="translate(125.767479, 188.354534) rotate(-4.000000) translate(-125.767479, -188.354534) "></path>
                <path d="M90.6917394,205.063593 C89.1844604,207.630531 89.7580202,211.221387 91.9876596,213.190631" id="Stroke-334" stroke="#000000" stroke-width="1.87644615" stroke-linecap="round" stroke-linejoin="round" transform="translate(90.919574, 209.127112) rotate(-4.000000) translate(-90.919574, -209.127112) "></path>
                <path d="M95.1471885,209.376192 C95.572544,208.328816 96.1374225,207.337595 96.8210145,206.436097 C96.7525053,208.160224 96.8888803,209.891116 97.2242331,211.582394" id="Stroke-336" stroke="#000000" stroke-width="1.87644615" stroke-linecap="round" stroke-linejoin="round" transform="translate(96.185711, 209.009246) rotate(-4.000000) translate(-96.185711, -209.009246) "></path>
                <path d="M101.158266,211.218445 L101.156363,213.946182" id="Stroke-338" stroke="#000000" stroke-width="1.87644615" stroke-linecap="round" stroke-linejoin="round" transform="translate(101.157314, 212.582314) rotate(-4.000000) translate(-101.157314, -212.582314) "></path>
                <path d="M103.470173,207.192262 C103.432922,208.093309 103.406525,209.042706 103.826634,209.840799 C104.248723,210.63889 105.287632,211.186871 106.085711,210.758996 C106.623374,210.471439 106.888091,209.840638 106.962747,209.236616 C107.103105,208.095685 106.610077,206.830849 105.585008,206.306543 C104.560929,205.782237 103.066969,206.28264 102.773212,207.394071" id="Stroke-340" stroke="#000000" stroke-width="1.87644615" stroke-linecap="round" stroke-linejoin="round" transform="translate(104.879713, 208.503144) rotate(-4.000000) translate(-104.879713, -208.503144) "></path>
                <path d="M107.718215,201.617326 C110.760231,203.945228 111.681447,208.616474 109.751995,211.92584" id="Stroke-342" stroke="#000000" stroke-width="1.87644615" stroke-linecap="round" stroke-linejoin="round" transform="translate(109.239983, 206.771583) rotate(-4.000000) translate(-109.239983, -206.771583) "></path>
                <path d="M71.353474,237.725075 C70.5942653,239.18816 71.0669982,241.169484 72.4035484,242.132734 C73.2494031,242.743023 74.4964334,242.914857 75.3213854,242.273797 C76.2830045,241.526059 76.2771326,240.011203 75.6938942,238.943806 C75.072103,237.80538 73.814653,236.962475 72.51892,237.080817 C71.223187,237.199159 70.0652305,238.458238 70.2840744,239.737081" id="Stroke-344" stroke="#000000" stroke-width="1.87644615" stroke-linecap="round" stroke-linejoin="round" transform="translate(73.176265, 239.874748) rotate(-4.000000) translate(-73.176265, -239.874748) "></path>
                <path d="M78.5786609,242.518184 C78.2381957,243.899066 78.3470263,245.386218 78.8845603,246.702341" id="Stroke-346" stroke="#000000" stroke-width="1.87644615" stroke-linecap="round" stroke-linejoin="round" transform="translate(78.634295, 244.610262) rotate(-4.000000) translate(-78.634295, -244.610262) "></path>
                <path d="M83.8263836,238.688995 C84.3140334,237.732369 84.8016831,236.775743 85.2913132,235.818128 C85.1387472,237.43277 85.2959693,239.075815 85.7511832,240.63082" id="Stroke-348" stroke="#000000" stroke-width="1.87644615" stroke-linecap="round" stroke-linejoin="round" transform="translate(84.788783, 238.224474) rotate(-4.000000) translate(-84.788783, -238.224474) "></path>
                <path d="M87.0045548,232.549629 C88.769387,235.364954 89.4637893,238.831378 88.9190915,242.109185" id="Stroke-350" stroke="#000000" stroke-width="1.87644615" stroke-linecap="round" stroke-linejoin="round" transform="translate(88.052531, 237.329407) rotate(-4.000000) translate(-88.052531, -237.329407) "></path>
                <path d="M68.1047665,235.847405 C67.5065341,237.828489 67.2447656,239.908027 67.3304267,241.974494 C67.365462,242.831081 67.4668003,243.707359 67.8562489,244.471919 C68.2456974,245.23648 68.9747355,245.875469 69.8308594,245.953823" id="Stroke-352" stroke="#000000" stroke-width="1.87644615" stroke-linecap="round" stroke-linejoin="round" transform="translate(68.572713, 240.900614) rotate(-4.000000) translate(-68.572713, -240.900614) "></path>
                <path d="M80.3427989,239.630663 L81.3632849,239.629952" id="Stroke-354" stroke="#000000" stroke-width="1.87644615" stroke-linecap="round" stroke-linejoin="round" transform="translate(80.853042, 239.630307) rotate(-4.000000) translate(-80.853042, -239.630307) "></path>
                <path d="M9.12460819,212.063264 L11.5248785,212.061591" id="Stroke-356" stroke="#000000" stroke-width="1.87644615" stroke-linecap="round" stroke-linejoin="round" transform="translate(10.324743, 212.062427) rotate(-4.000000) translate(-10.324743, -212.062427) "></path>
                <path d="M12.7786362,208.941106 C13.2055693,208.470066 13.631512,208.000015 14.0594349,207.528975 C14.030789,208.864243 14.1080499,210.202398 14.2912299,211.525676" id="Stroke-358" stroke="#000000" stroke-width="1.87644615" stroke-linecap="round" stroke-linejoin="round" transform="translate(13.534933, 209.527325) rotate(-4.000000) translate(-13.534933, -209.527325) "></path>
                <path d="M16.4798099,211.50344 C16.6465186,212.317499 16.4053784,213.203885 15.848678,213.823047" id="Stroke-360" stroke="#000000" stroke-width="1.87644615" stroke-linecap="round" stroke-linejoin="round" transform="translate(16.190206, 212.663243) rotate(-4.000000) translate(-16.190206, -212.663243) "></path>
                <path d="M18.2229017,208.031578 C18.0412702,208.745219 17.9130501,209.513101 18.1610072,210.205717 C18.4109439,210.898333 19.158842,211.460333 19.8706468,211.263447 C20.2082347,211.169458 20.4865399,210.924518 20.6936047,210.643113 C21.2860654,209.841354 21.3126656,208.600827 20.5945518,207.909525 C19.8774278,207.218223 18.4529647,207.416592 18.1068725,208.350421" id="Stroke-362" stroke="#000000" stroke-width="1.87644615" stroke-linecap="round" stroke-linejoin="round" transform="translate(19.579640, 209.400186) rotate(-4.000000) translate(-19.579640, -209.400186) "></path>
                <path d="M22.5614948,205.853616 C23.9708085,207.507631 24.4977162,209.86788 23.9261286,211.963424" id="Stroke-364" stroke="#000000" stroke-width="1.87644615" stroke-linecap="round" stroke-linejoin="round" transform="translate(23.357323, 208.908520) rotate(-4.000000) translate(-23.357323, -208.908520) "></path>
                <path d="M6.18990937,207.606211 C4.74442008,209.568149 4.9284232,212.549384 6.60292537,214.315718" id="Stroke-366" stroke="#000000" stroke-width="1.87644615" stroke-linecap="round" stroke-linejoin="round" transform="translate(5.909325, 210.960964) rotate(-4.000000) translate(-5.909325, -210.960964) "></path>
                <path d="M9.71311896,159.863634 C6.25178728,162.694444 5.61732765,168.365497 8.36949573,171.877857" id="Stroke-368" stroke="#000000" stroke-width="1.87644615" stroke-linecap="round" stroke-linejoin="round" transform="translate(8.182803, 165.870745) rotate(-4.000000) translate(-8.182803, -165.870745) "></path>
                <path d="M14.3397626,163.940942 C15.3746549,165.990956 16.6808481,167.904592 18.2138471,169.61576" id="Stroke-370" stroke="#000000" stroke-width="1.87644615" stroke-linecap="round" stroke-linejoin="round" transform="translate(16.276805, 166.778351) rotate(-4.000000) translate(-16.276805, -166.778351) "></path>
                <path d="M23.5588869,168.824612 C23.552422,170.997725 22.546272,173.149824 20.8804458,174.554329" id="Stroke-372" stroke="#000000" stroke-width="1.87644615" stroke-linecap="round" stroke-linejoin="round" transform="translate(22.219666, 171.689470) rotate(-4.000000) translate(-22.219666, -171.689470) "></path>
                <path d="M25.6900935,163.156516 C26.6789457,164.517721 27.6668081,165.878926 28.6556603,167.240131" id="Stroke-374" stroke="#000000" stroke-width="1.87644615" stroke-linecap="round" stroke-linejoin="round" transform="translate(27.172877, 165.198323) rotate(-4.000000) translate(-27.172877, -165.198323) "></path>
                <path d="M18.0308629,164.197067 C16.5359427,166.074168 15.0420116,167.952255 13.5480806,169.830341" id="Stroke-376" stroke="#000000" stroke-width="1.87644615" stroke-linecap="round" stroke-linejoin="round" transform="translate(15.789472, 167.013704) rotate(-4.000000) translate(-15.789472, -167.013704) "></path>
                <path d="M30.2821563,163.398138 C29.0551255,165.772439 28.1991377,168.336949 27.7568383,170.971239" id="Stroke-378" stroke="#000000" stroke-width="1.87644615" stroke-linecap="round" stroke-linejoin="round" transform="translate(29.019497, 167.184688) rotate(-4.000000) translate(-29.019497, -167.184688) "></path>
                <path d="M32.3668236,157.939906 C33.7864261,160.452499 34.2079294,163.508571 33.5259789,166.313759 C33.3671541,166.968171 33.1330947,167.636451 32.6457857,168.104572" id="Stroke-380" stroke="#000000" stroke-width="1.87644615" stroke-linecap="round" stroke-linejoin="round" transform="translate(33.106037, 163.022239) rotate(-4.000000) translate(-33.106037, -163.022239) "></path>
                <path d="M152.851748,176.838869 C157.005703,177.187302 161.160648,177.535735 165.314602,177.884168 C161.554468,180.54643 158.347095,183.980047 155.951014,187.908512 L167.088779,188.587615" id="Stroke-424" stroke="#000000" stroke-width="1.87644615" stroke-linecap="round" stroke-linejoin="round" transform="translate(159.970264, 182.713242) rotate(-4.000000) translate(-159.970264, -182.713242) "></path>
                <path d="M174.870565,179.464552 C177.804186,179.682581 180.76378,179.557157 183.669172,179.092285" id="Stroke-426" stroke="#000000" stroke-width="1.87644615" stroke-linecap="round" stroke-linejoin="round" transform="translate(179.269869, 179.330386) rotate(-4.000000) translate(-179.269869, -179.330386) "></path>
                <path d="M190.579817,175.186838 C193.005547,178.417177 195.432267,181.648503 197.857997,184.878843 C197.991496,185.057375 198.160615,185.253646 198.384314,185.247569 C198.607023,185.24248 198.73893,184.864413 198.523194,184.806337" id="Stroke-428" stroke="#000000" stroke-width="1.87644615" stroke-linecap="round" stroke-linejoin="round" transform="translate(194.606415, 180.217272) rotate(-4.000000) translate(-194.606415, -180.217272) "></path>
                <path d="M175.641996,183.95854 C178.266645,184.395871 180.944963,184.518351 183.600737,184.323071" id="Stroke-430" stroke="#000000" stroke-width="1.87644615" stroke-linecap="round" stroke-linejoin="round" transform="translate(179.621367, 184.185851) rotate(-4.000000) translate(-179.621367, -184.185851) "></path>
                <path d="M202.308537,174.992819 C199.441144,180.578584 197.412806,186.590095 196.307839,192.765772" id="Stroke-432" stroke="#000000" stroke-width="1.87644615" stroke-linecap="round" stroke-linejoin="round" transform="translate(199.308188, 183.879296) rotate(-4.000000) translate(-199.308188, -183.879296) "></path>
                <path d="M209.736519,177.498219 C212.247757,177.339554 214.759984,177.181876 217.271221,177.023211" id="Stroke-434" stroke="#000000" stroke-width="1.87644615" stroke-linecap="round" stroke-linejoin="round" transform="translate(213.503870, 177.260715) rotate(-4.000000) translate(-213.503870, -177.260715) "></path>
                <path d="M223.1102,170.101934 C224.317229,169.441856 225.783246,169.269117 227.110318,169.630377 C227.609083,169.766219 228.100863,169.982989 228.459903,170.353806 C229.327334,171.249288 229.119365,172.827453 228.257608,173.730062 C227.394861,174.631685 226.074239,174.956302 224.824121,174.9552 C226.037478,173.735557 228.432294,174.459244 229.00426,176.078315 C229.577215,177.697385 228.481165,179.603814 226.874285,180.222721 C225.266414,180.842616 223.372292,180.329772 222.050683,179.231309" id="Stroke-436" stroke="#000000" stroke-width="1.87644615" stroke-linecap="round" stroke-linejoin="round" transform="translate(225.604457, 174.967438) rotate(-4.000000) translate(-225.604457, -174.967438) "></path>
                <path d="M213.119408,173.751364 L213.113874,181.684894" id="Stroke-438" stroke="#000000" stroke-width="1.87644615" stroke-linecap="round" stroke-linejoin="round" transform="translate(213.116641, 177.718129) rotate(-4.000000) translate(-213.116641, -177.718129) "></path>
                <path d="M147.619721,136.396193 C143.202317,136.279861 138.781863,136.278995 134.3643,136.391618 C133.852176,142.634976 133.754757,148.910612 134.07406,155.164246 C139.700307,154.857351 145.353899,155.080392 150.934868,155.82949" id="Stroke-440" stroke="#000000" stroke-width="1.87644615" stroke-linecap="round" stroke-linejoin="round" transform="translate(142.412661, 146.068763) rotate(-4.000000) translate(-142.412661, -146.068763) "></path>
                <path d="M156.433978,146.190168 C160.41299,146.177525 164.391011,146.165869 168.371013,146.153226 C168.53136,146.153114 168.749078,146.208227 168.740058,146.369095 C168.72004,146.686884 168.272937,146.275667 168.323636,145.960817" id="Stroke-442" stroke="#000000" stroke-width="1.87644615" stroke-linecap="round" stroke-linejoin="round" transform="translate(162.587154, 146.222248) rotate(-4.000000) translate(-162.587154, -146.222248) "></path>
                <path d="M133.788232,146.618271 L143.419007,146.611556" id="Stroke-444" stroke="#000000" stroke-width="1.87644615" stroke-linecap="round" stroke-linejoin="round" transform="translate(138.603620, 146.614914) rotate(-4.000000) translate(-138.603620, -146.614914) "></path>
                <path d="M156.742619,150.738134 C160.652174,150.970286 164.581745,150.886622 168.478872,150.488166" id="Stroke-446" stroke="#000000" stroke-width="1.87644615" stroke-linecap="round" stroke-linejoin="round" transform="translate(162.610746, 150.677170) rotate(-4.000000) translate(-162.610746, -150.677170) "></path>
                <path d="M176.848812,140.058853 C176.928937,142.967131 177.225833,145.869338 177.735562,148.732907 C177.437316,146.347827 177.826051,143.87937 178.846078,141.698641 C179.455716,140.394548 180.800825,139.019874 182.119827,139.599239 C182.959911,139.967747 183.299713,140.95735 183.516851,141.844404 C184.012325,143.860253 184.346434,145.915691 184.515236,147.98506 C185.088497,146.328676 184.838371,144.48832 185.330485,142.807321 C185.8226,141.125335 187.681555,139.552926 189.227045,140.384775 C190.356974,140.993879 190.598441,142.476991 190.708408,143.753936 C190.84294,145.28844 190.975493,146.822946 191.109036,148.356464 C191.129668,148.577511 191.186888,148.847876 191.400643,148.907926 C191.615389,148.966989 191.72062,148.518873 191.50382,148.567381" id="Stroke-448" stroke="#000000" stroke-width="1.87644615" stroke-linecap="round" stroke-linejoin="round" transform="translate(184.235982, 144.188104) rotate(-4.000000) translate(-184.235982, -144.188104) "></path>
                <path d="M202.12954,137.496591 C200.096401,136.201249 197.063951,137.186295 195.962785,139.330566 C194.859641,141.473851 195.657418,144.316495 197.561754,145.795487 C199.465102,147.273492 202.229518,147.416636 204.418679,146.399611 C204.806807,146.219728 205.125985,145.557309 204.702391,145.499379" id="Stroke-450" stroke="#000000" stroke-width="1.87644615" stroke-linecap="round" stroke-linejoin="round" transform="translate(200.182299, 141.985077) rotate(-4.000000) translate(-200.182299, -141.985077) "></path>
                <path d="M203.11728,128.285444 C203.549278,127.647618 204.66646,128.084027 204.886673,128.820086 C205.106884,129.557131 204.765853,130.331083 204.465449,131.038885 C204.165044,131.747674 203.902169,132.576836 204.256041,133.25951 C204.924253,134.541988 206.856681,134.062004 208.14982,133.404827" id="Stroke-452" stroke="#000000" stroke-width="1.87644615" stroke-linecap="round" stroke-linejoin="round" transform="translate(205.633550, 131.020892) rotate(-4.000000) translate(-205.633550, -131.020892) "></path>
                <path d="M351.386512,55.4662985 C354.059756,54.3492607 357.571249,53.3934867 359.503821,55.5445239 C360.499779,56.6520954 360.664832,58.4214556 359.891897,59.6960562 C359.118962,60.9716436 357.47047,61.6488055 356.021653,61.2866439 C359.547942,60.4038887 363.197443,64.5146588 361.893494,67.8976046 C360.588555,71.2805511 355.112538,71.9031425 353.08653,68.8985195" id="Stroke-468" stroke="#000000" stroke-width="1.87644615" stroke-linecap="round" stroke-linejoin="round" transform="translate(356.775190, 62.545238) rotate(-4.000000) translate(-356.775190, -62.545238) "></path>
                <path d="M331.945594,63.1546341 C336.322342,63.3765913 340.6981,63.599536 345.073858,63.8214938" id="Stroke-470" stroke="#000000" stroke-width="1.87644615" stroke-linecap="round" stroke-linejoin="round" transform="translate(338.509726, 63.488064) rotate(-4.000000) translate(-338.509726, -63.488064) "></path>
                <path d="M366.602297,68.5293358 C368.616778,71.0306582 367.227011,75.4104123 364.133255,76.3066822" id="Stroke-472" stroke="#000000" stroke-width="1.87644615" stroke-linecap="round" stroke-linejoin="round" transform="translate(365.839705, 72.418009) rotate(-4.000000) translate(-365.839705, -72.418009) "></path>
                <path d="M371.870906,60.6209657 C373.755191,58.208705 375.374354,55.5903712 376.689747,52.8281647 C376.945435,58.0466062 377.201123,63.2650477 377.455821,68.4834899" id="Stroke-474" stroke="#000000" stroke-width="1.87644615" stroke-linecap="round" stroke-linejoin="round" transform="translate(374.663363, 60.655827) rotate(-4.000000) translate(-374.663363, -60.655827) "></path>
                <path d="M387.598021,51.2679683 C384.743673,53.7608426 382.519332,56.9667917 381.186568,60.5086452 C384.778549,60.521931 388.371521,60.5332423 391.964492,60.5465274" id="Stroke-476" stroke="#000000" stroke-width="1.87644615" stroke-linecap="round" stroke-linejoin="round" transform="translate(386.575530, 55.907248) rotate(-4.000000) translate(-386.575530, -55.907248) "></path>
                <path d="M332.231577,68.4886616 C335.690362,67.889188 339.256599,67.916308 342.702633,68.5691936" id="Stroke-478" stroke="#000000" stroke-width="1.87644615" stroke-linecap="round" stroke-linejoin="round" transform="translate(337.467105, 68.313809) rotate(-4.000000) translate(-337.467105, -68.313809) "></path>
                <path d="M388.277172,52.2242142 C388.388305,57.5049299 388.500429,62.7846581 388.612553,68.0643862" id="Stroke-480" stroke="#000000" stroke-width="1.87644615" stroke-linecap="round" stroke-linejoin="round" transform="translate(388.444863, 60.144300) rotate(-4.000000) translate(-388.444863, -60.144300) "></path>
                <path d="M310.478197,59.0945903 C310.968553,57.095817 313.39321,56.1891579 315.449912,56.3416772 C317.507602,56.4951827 319.459877,57.3612889 321.517575,57.5039387 C323.575274,57.6456016 325.995993,56.708352 326.454681,54.7026927" id="Stroke-482" stroke="#000000" stroke-width="1.87644615" stroke-linecap="round" stroke-linejoin="round" transform="translate(318.466439, 56.898641) rotate(-4.000000) translate(-318.466439, -56.898641) "></path>
                <path d="M316.645486,57.3740911 C317.028078,60.8732997 316.867228,64.431113 316.171959,67.882716 C316.047804,68.4986155 315.881059,69.1550067 315.401712,69.5619354 C314.922364,69.968864 314.032559,69.9300092 313.800362,69.3469252" id="Stroke-484" stroke="#000000" stroke-width="1.87644615" stroke-linecap="round" stroke-linejoin="round" transform="translate(315.324128, 63.602953) rotate(-4.000000) translate(-315.324128, -63.602953) "></path>
                <path d="M323.115282,56.8433836 C322.225835,60.5487501 321.990539,64.4086006 322.422423,68.1919961 C322.468656,68.6044796 322.547524,69.0574024 322.871007,69.3187 C323.194491,69.5790107 323.824111,69.4256054 323.821432,69.0101309" id="Stroke-486" stroke="#000000" stroke-width="1.87644615" stroke-linecap="round" stroke-linejoin="round" transform="translate(323.016871, 63.145055) rotate(-4.000000) translate(-323.016871, -63.145055) "></path>
                <path d="M91.7818594,56.9652168 C92.5150888,48.7578142 93.2493088,40.549424 93.9835288,32.3410338 C95.1394595,38.2427553 97.1625754,43.9741288 99.9679208,49.295402 C101.050673,43.750357 102.712381,38.3164259 104.916342,33.1100859 C105.298241,40.4403619 105.678161,47.7706393 106.060059,55.1019021" id="Stroke-530" stroke="#000000" stroke-width="1.87644615" stroke-linecap="round" stroke-linejoin="round" transform="translate(98.920959, 44.653125) rotate(-4.000000) translate(-98.920959, -44.653125) "></path>
                <path d="M115.974602,51.7157524 C118.083565,52.1524566 120.737294,52.0509316 121.811539,50.1869538 C123.098854,47.9478132 120.428476,44.9564689 117.880412,45.4072757 C115.332348,45.8580824 113.728882,48.6767418 113.875556,51.2523955 C114.152267,56.1303489 120.252943,59.6295184 124.627429,57.4188187" id="Stroke-532" stroke="#000000" stroke-width="1.87644615" stroke-linecap="round" stroke-linejoin="round" transform="translate(119.246853, 51.728998) rotate(-4.000000) translate(-119.246853, -51.728998) "></path>
                <path d="M132.415002,46.740759 C136.594937,46.7378448 140.773881,46.7359181 144.952826,46.7339915" id="Stroke-534" stroke="#000000" stroke-width="1.87644615" stroke-linecap="round" stroke-linejoin="round" transform="translate(138.683914, 46.737375) rotate(-4.000000) translate(-138.683914, -46.737375) "></path>
                <path d="M156.03496,27.4218638 C156.341834,37.3032761 156.652709,42.8690608 156.959582,52.75146 C160.532659,52.9058827 164.113771,52.8915434 167.685104,52.7074677" id="Stroke-536" stroke="#000000" stroke-width="1.87644615" stroke-linecap="round" stroke-linejoin="round" transform="translate(161.860032, 40.139604) rotate(-4.000000) translate(-161.860032, -40.139604) "></path>
                <path d="M132.800113,52.3095433 L145.060792,52.3009952" id="Stroke-538" stroke="#000000" stroke-width="1.87644615" stroke-linecap="round" stroke-linejoin="round" transform="translate(138.930452, 52.305269) rotate(-4.000000) translate(-138.930452, -52.305269) "></path>
                <path d="M179.025258,38.3001325 C179.025291,38.2527622 178.928575,44.9399264 178.987076,46.2109866 C179.041681,47.3932304 179.595146,55.6678307 179.63593,52.5403805" id="Stroke-540" stroke="#000000" stroke-width="1.87644615" stroke-linecap="round" stroke-linejoin="round" transform="translate(179.302103, 45.770858) rotate(-4.000000) translate(-179.302103, -45.770858) "></path>
                <path d="M194.65325,26.0136374 C194.460957,36.3345591 194.697563,39.1104867 195.353545,49.4110795" id="Stroke-542" stroke="#000000" stroke-width="1.87644615" stroke-linecap="round" stroke-linejoin="round" transform="translate(194.971014, 37.712358) rotate(-4.000000) translate(-194.971014, -37.712358) "></path>
                <path d="M174.662598,45.2971502 L184.031002,46.8153477" id="Stroke-544" stroke="#000000" stroke-width="1.87644615" stroke-linecap="round" stroke-linejoin="round" transform="translate(179.346800, 46.056249) rotate(-4.000000) translate(-179.346800, -46.056249) "></path>
                <path d="M188.24675,25.4553275 C191.543537,25.8033713 194.839333,26.1524026 198.13612,26.5004464" id="Stroke-546" stroke="#000000" stroke-width="1.87644615" stroke-linecap="round" stroke-linejoin="round" transform="translate(193.191435, 25.977887) rotate(-4.000000) translate(-193.191435, -25.977887) "></path>
                <path d="M191.743449,50.2378366 C195.686025,49.9567878 199.629591,49.6757383 203.571178,49.3937034" id="Stroke-548" stroke="#000000" stroke-width="1.87644615" stroke-linecap="round" stroke-linejoin="round" transform="translate(197.657313, 49.815770) rotate(-4.000000) translate(-197.657313, -49.815770) "></path>
                <path d="M223.057683,9.47084803 C221.178772,9.85309355 219.298872,10.2353398 217.418971,10.6185728 C216.853715,10.733445 216.247859,10.8720305 215.866485,11.302576 C215.460348,11.7597844 215.417323,12.4239844 215.396111,13.0348777 C214.828575,29.1865463 215.103022,52.9198244 216.228069,69.0407065 C216.243748,69.2657041 216.267334,69.5094469 216.419648,69.6751365 C216.602621,69.8753455 216.904496,69.8968464 217.175697,69.9035655 C220.132175,69.9883497 223.088655,70.072147 226.046124,70.1559436" id="Stroke-550" stroke="#000000" stroke-width="1.87644615" stroke-linecap="round" stroke-linejoin="round" transform="translate(220.577827, 39.813396) rotate(-4.000000) translate(-220.577827, -39.813396) "></path>
                <path d="M229.760559,10.5959427 C229.580014,14.0086985 229.667695,17.4360705 230.020663,20.834638 C230.142327,18.1147128 230.376027,15.1233175 232.30155,13.1906515 C232.815616,12.675142 233.50284,12.2433964 234.227317,12.3257892 C235.497132,12.4699752 236.046408,13.9814919 236.273187,15.2356579 C236.722802,17.7222812 236.983342,20.2425903 237.050866,22.7689552" id="Stroke-552" stroke="#000000" stroke-width="1.87644615" stroke-linecap="round" stroke-linejoin="round" transform="translate(233.360084, 16.682449) rotate(-4.000000) translate(-233.360084, -16.682449) "></path>
                <path d="M225.161241,26.1421673 C232.084727,26.3959028 239.008213,26.6496383 245.930709,26.9033744 C245.555558,26.9273211 245.181397,26.9502802 244.805256,26.9732407" id="Stroke-554" stroke="#000000" stroke-width="1.87644615" stroke-linecap="round" stroke-linejoin="round" transform="translate(235.545975, 26.557704) rotate(-4.000000) translate(-235.545975, -26.557704) "></path>
                <path d="M231.195774,33.0763446 C231.29939,32.1061697 232.245212,31.3021902 233.223102,31.3508524 C234.7127,31.4277774 235.596323,33.234138 235.290448,34.6899988 C234.984573,36.1468464 233.894002,37.2923872 232.867813,38.3737359 C232.219016,39.0580959 231.544245,40.0839343 232.092062,40.8483841 C232.427277,41.3179051 233.073545,41.4220638 233.650574,41.4591629 C234.999616,41.5421072 236.359658,41.4631955 237.689129,41.2234437" id="Stroke-556" stroke="#000000" stroke-width="1.87644615" stroke-linecap="round" stroke-linejoin="round" transform="translate(234.442452, 36.419906) rotate(-4.000000) translate(-234.442452, -36.419906) "></path>
                <path d="M252.395998,28.8438729 C254.273423,29.1721818 256.198543,29.2359737 258.094156,29.0313549" id="Stroke-558" stroke="#000000" stroke-width="1.87644615" stroke-linecap="round" stroke-linejoin="round" transform="translate(255.245077, 28.996218) rotate(-4.000000) translate(-255.245077, -28.996218) "></path>
                <path d="M264.774062,34.5714613 C264.928088,35.120059 265.082114,35.6696436 265.23614,36.2182414 C264.893363,28.1428439 264.724797,20.05943 264.733405,11.9758925 C267.914974,11.4802345 271.133804,11.4878592 274.352615,11.5221296" id="Stroke-560" stroke="#000000" stroke-width="1.87644615" stroke-linecap="round" stroke-linejoin="round" transform="translate(269.542853, 23.863348) rotate(-4.000000) translate(-269.542853, -23.863348) "></path>
                <path d="M222.596522,43.9364501 C241.598767,45.3097678 260.675949,45.6774029 279.719191,45.0374575 C279.404525,44.9064219 279.088869,44.7763739 278.775193,44.6463244" id="Stroke-562" stroke="#000000" stroke-width="1.87644615" stroke-linecap="round" stroke-linejoin="round" transform="translate(251.157856, 44.639403) rotate(-4.000000) translate(-251.157856, -44.639403) "></path>
                <path d="M264.351414,24.2061721 C267.261563,24.0166361 270.193255,24.1606503 273.070279,24.6343205" id="Stroke-564" stroke="#000000" stroke-width="1.87644615" stroke-linecap="round" stroke-linejoin="round" transform="translate(268.710846, 24.379813) rotate(-4.000000) translate(-268.710846, -24.379813) "></path>
                <path d="M251.238891,64.0451756 C251.039414,59.1237457 251.206175,54.1872573 251.738146,49.2890026 C251.786959,48.8409251 251.847665,48.3701412 252.114176,48.0057968 C252.642245,47.2830327 253.794362,47.2999933 254.536364,47.8008109 C255.278366,48.3006415 255.710328,49.1342537 256.11163,49.9333465" id="Stroke-566" stroke="#000000" stroke-width="1.87644615" stroke-linecap="round" stroke-linejoin="round" transform="translate(253.634507, 55.743456) rotate(-4.000000) translate(-253.634507, -55.743456) "></path>
                <path d="M276.806848,1.15078348 C278.7369,1.23825704 280.655888,1.57936638 282.495522,2.16330345 C283.036823,2.33563001 283.609764,2.5562916 283.921222,3.02878982 C284.204996,3.45788464 284.212534,4.00362385 284.212175,4.51778841 C284.199294,21.5641701 284.182649,44.0077994 284.169767,61.055168 C284.167811,62.4407484 284.121221,63.9586019 283.210862,65.0073028 C282.299513,66.0560044 280.201134,66.0545067 279.806141,64.7254552" id="Stroke-568" stroke="#000000" stroke-width="1.87644615" stroke-linecap="round" stroke-linejoin="round" transform="translate(280.509517, 33.455996) rotate(-4.000000) translate(-280.509517, -33.455996) "></path>
                <path d="M248.226146,56.209873 C251.420092,56.4158778 254.612059,56.621884 257.805015,56.8288764" id="Stroke-570" stroke="#000000" stroke-width="1.87644615" stroke-linecap="round" stroke-linejoin="round" transform="translate(253.015580, 56.519375) rotate(-4.000000) translate(-253.015580, -56.519375) "></path>
                <path d="M329.26717,20.8196842 C325.12476,20.947906 321.224832,23.9428442 320.041234,27.9050044 C319.680107,29.1082625 319.608819,30.5600123 320.47624,31.4693106 C321.047927,32.0699217 321.919782,32.2992568 322.751202,32.3184148 C325.06532,32.3740404 327.266633,30.9632415 328.508214,29.0142754 C329.748806,27.0653099 330.114732,24.6570684 329.908477,22.3587694 C328.814894,24.9846318 329.907285,28.3244579 332.34315,29.796171 C334.778025,31.2688717 338.257581,30.6920818 340.088254,28.512762" id="Stroke-616" stroke="#000000" stroke-width="1.87644615" stroke-linecap="round" stroke-linejoin="round" transform="translate(329.937955, 26.569844) rotate(-4.000000) translate(-329.937955, -26.569844) "></path>
                <path d="M344.954611,7.1343619 C345.308736,14.5505158 345.214465,21.9877068 344.673816,29.3946157 C346.560097,29.7979213 348.493885,30.2051413 350.403404,29.9314312 C352.313911,29.6587073 354.226974,28.5599633 354.91812,26.7623735 C355.778828,24.526491 354.392984,21.862882 352.259736,20.7659722 C350.12649,19.6680756 347.508306,19.8949095 345.272721,20.7728173" id="Stroke-618" stroke="#000000" stroke-width="1.87644615" stroke-linecap="round" stroke-linejoin="round" transform="translate(349.925478, 18.577469) rotate(-4.000000) translate(-349.925478, -18.577469) "></path>
                <path d="M321.099026,11.2869802 C317.070366,14.3639192 314.478633,19.2399249 314.188069,24.288017 C313.897504,29.337096 315.91312,34.4694389 319.563043,37.9752514" id="Stroke-620" stroke="#000000" stroke-width="1.87644615" stroke-linecap="round" stroke-linejoin="round" transform="translate(317.629734, 24.631116) rotate(-4.000000) translate(-317.629734, -24.631116) "></path>
                <path d="M352.214492,5.78570931 C355.288975,9.81398242 358.135595,14.1424258 359.490199,19.0225883 C360.925762,24.1948107 360.575391,29.8439543 358.512153,34.80545" id="Stroke-622" stroke="#000000" stroke-width="1.87644615" stroke-linecap="round" stroke-linejoin="round" transform="translate(356.287470, 20.295580) rotate(-4.000000) translate(-356.287470, -20.295580) "></path>
                <path d="M360.412891,7.72086372 C360.522821,9.05011401 360.549604,10.3863304 360.490275,11.7196462 C360.566152,10.7850183 360.666818,9.78819962 361.258238,9.05947008 C361.850647,8.33073985 363.123704,8.08411925 363.699253,8.82387774 C364.367759,9.68397074 363.643233,11.0907794 364.293912,11.9647012 C364.278767,10.9728976 364.583329,9.97988435 365.150065,9.16432661 C365.372003,8.84540974 365.757261,8.52243149 366.107533,8.69193059 C366.365784,8.81708426 366.441772,9.14171469 366.474237,9.42591341 C366.577537,10.3278494 366.560029,11.3048725 367.083116,12.0476282 C367.606204,12.789397 368.96408,12.9779312 369.326929,12.1447518" id="Stroke-624" stroke="#000000" stroke-width="1.87644615" stroke-linecap="round" stroke-linejoin="round" transform="translate(364.869910, 10.206237) rotate(-4.000000) translate(-364.869910, -10.206237) "></path>
                <path d="M386.780985,15.2185775 C384.259774,14.0666729 381.07788,15.0291252 379.25321,17.1146873 C377.42854,19.2012362 376.856337,22.1780642 377.284995,24.9104352 C379.62409,26.0525979 382.647487,25.2748026 384.411659,23.3609998 C386.176821,21.4462095 386.738037,18.6105129 386.195419,16.0686891 C385.079236,19.8768491 387.786199,24.3405924 391.685475,25.1194826 C393.378789,25.4577886 395.508238,24.9056251 396.031009,23.2630929" id="Stroke-626" stroke="#000000" stroke-width="1.87644615" stroke-linecap="round" stroke-linejoin="round" transform="translate(386.590344, 20.084236) rotate(-4.000000) translate(-386.590344, -20.084236) "></path>
                <path d="M411.032134,0.737152629 C409.703749,7.9344054 409.009746,15.2466808 408.960102,22.5624545 C411.420145,22.0090736 414.056686,22.4256724 416.443663,21.6157538 C418.83262,20.8058338 420.821231,17.8250576 419.303283,15.8207764 C418.612048,14.9083946 417.429501,14.5272966 416.302269,14.3099821 C413.22341,13.7160533 409.981628,13.9758891 407.035228,15.0506815" id="Stroke-628" stroke="#000000" stroke-width="1.87644615" stroke-linecap="round" stroke-linejoin="round" transform="translate(413.434246, 11.649804) rotate(-4.000000) translate(-413.434246, -11.649804) "></path>
                <path d="M394.194905,12.8858778 L394.222368,14.6652027 C394.370429,13.8331599 394.625375,13.0207802 394.977291,12.2517555 C395.109134,11.9654685 395.266717,11.6722554 395.534081,11.5042994 C396.088614,11.1545574 396.868309,11.5398838 397.169793,12.1209457 C397.470287,12.7020083 397.428233,13.3938403 397.377298,14.0462033 C397.859712,13.5011094 397.996833,12.7430902 398.311057,12.087583 C398.627261,11.4330613 399.314614,10.8147954 400.010295,11.030437 C401.102801,11.3671882 400.763155,12.991829 401.17021,14.0573752 C401.30458,14.4056501 402.018173,14.483116 401.85212,14.1486796" id="Stroke-630" stroke="#000000" stroke-width="1.87644615" stroke-linecap="round" stroke-linejoin="round" transform="translate(398.035967, 12.825955) rotate(-4.000000) translate(-398.035967, -12.825955) "></path>
                <path d="M422.92629,10.8566793 L422.953753,12.6360042 C423.101814,11.8039615 423.355769,10.9915824 423.708675,10.2225571 C423.840519,9.93627008 423.997112,9.64305764 424.264476,9.47510169 C424.819008,9.12535966 425.599693,9.51068533 425.900188,10.091748 C426.201672,10.6728099 426.158628,11.3646426 426.108683,12.0170049 C426.591096,11.4719109 426.727228,10.7138924 427.042442,10.0583846 C427.358645,9.40386288 428.045999,8.78559698 428.740689,9.0012393 C429.833196,9.33799046 429.49454,10.9626305 429.901595,12.0281768 C430.034975,12.3764523 430.749558,12.4539176 430.582515,12.1194819" id="Stroke-632" stroke="#000000" stroke-width="1.87644615" stroke-linecap="round" stroke-linejoin="round" transform="translate(426.766980, 10.796757) rotate(-4.000000) translate(-426.766980, -10.796757) "></path>
                <path d="M3.34095951,110.926016 C2.83128103,81.0288518 4.20455578,53.4673055 3.73110718,21.295358 L140.975262,113.199557 L3.34095951,110.926016 Z" id="Stroke-750" stroke="#000000" stroke-width="1.87644615" stroke-linecap="round" stroke-linejoin="round" transform="translate(72.100453, 67.247457) rotate(-4.000000) translate(-72.100453, -67.247457) "></path>
                <path d="M21.7966074,94.7386599 C21.8234079,86.1162734 21.9541122,77.5303291 22.0879924,68.6483186 C22.1482124,64.61786 22.2104395,60.5479248 22.2618133,56.4286532 L80.9296504,95.7149057 L21.7966074,94.7386599 Z" id="Stroke-752" stroke="#000000" stroke-width="1.87644615" stroke-linecap="round" stroke-linejoin="round" transform="translate(51.363129, 76.071779) rotate(-4.000000) translate(-51.363129, -76.071779) "></path>
                <path d="M10.9009842,112.042217 L10.8450311,115.631538" id="Stroke-754" stroke="#000000" stroke-width="1.87644615" stroke-linecap="round" stroke-linejoin="round" transform="translate(10.873008, 113.836878) rotate(-4.000000) translate(-10.873008, -113.836878) "></path>
                <path d="M16.3784275,111.736485 L16.3224744,115.325806" id="Stroke-756" stroke="#000000" stroke-width="1.87644615" stroke-linecap="round" stroke-linejoin="round" transform="translate(16.350451, 113.531146) rotate(-4.000000) translate(-16.350451, -113.531146) "></path>
                <path d="M21.8558436,111.430359 L21.7998905,115.01968" id="Stroke-758" stroke="#000000" stroke-width="1.87644615" stroke-linecap="round" stroke-linejoin="round" transform="translate(21.827867, 113.225020) rotate(-4.000000) translate(-21.827867, -113.225020) "></path>
                <path d="M27.3332869,111.124627 L27.2773338,114.713948" id="Stroke-760" stroke="#000000" stroke-width="1.87644615" stroke-linecap="round" stroke-linejoin="round" transform="translate(27.305310, 112.919287) rotate(-4.000000) translate(-27.305310, -112.919287) "></path>
                <path d="M32.8117175,110.818825 L32.7557645,114.408146" id="Stroke-762" stroke="#000000" stroke-width="1.87644615" stroke-linecap="round" stroke-linejoin="round" transform="translate(32.783741, 112.613486) rotate(-4.000000) translate(-32.783741, -112.613486) "></path>
                <path d="M38.2891609,110.513093 L38.2332078,114.102414" id="Stroke-764" stroke="#000000" stroke-width="1.87644615" stroke-linecap="round" stroke-linejoin="round" transform="translate(38.261184, 112.307753) rotate(-4.000000) translate(-38.261184, -112.307753) "></path>
                <path d="M43.766611,110.20746 L43.7106579,113.79678" id="Stroke-766" stroke="#000000" stroke-width="1.87644615" stroke-linecap="round" stroke-linejoin="round" transform="translate(43.738634, 112.002120) rotate(-4.000000) translate(-43.738634, -112.002120) "></path>
                <path d="M49.2440543,109.901727 L49.1881012,113.491048" id="Stroke-768" stroke="#000000" stroke-width="1.87644615" stroke-linecap="round" stroke-linejoin="round" transform="translate(49.216078, 111.696388) rotate(-4.000000) translate(-49.216078, -111.696388) "></path>
                <path d="M54.7214976,109.595995 L54.6655445,113.185316" id="Stroke-770" stroke="#000000" stroke-width="1.87644615" stroke-linecap="round" stroke-linejoin="round" transform="translate(54.693521, 111.390655) rotate(-4.000000) translate(-54.693521, -111.390655) "></path>
                <path d="M60.1989137,109.289869 L60.1429606,112.87919" id="Stroke-772" stroke="#000000" stroke-width="1.87644615" stroke-linecap="round" stroke-linejoin="round" transform="translate(60.170937, 111.084529) rotate(-4.000000) translate(-60.170937, -111.084529) "></path>
                <path d="M65.6762583,108.984144 L65.6203052,112.573464" id="Stroke-774" stroke="#000000" stroke-width="1.87644615" stroke-linecap="round" stroke-linejoin="round" transform="translate(65.648282, 110.778804) rotate(-4.000000) translate(-65.648282, -110.778804) "></path>
                <path d="M71.1537016,108.678412 L71.0977485,112.267732" id="Stroke-776" stroke="#000000" stroke-width="1.87644615" stroke-linecap="round" stroke-linejoin="round" transform="translate(71.125725, 110.473072) rotate(-4.000000) translate(-71.125725, -110.473072) "></path>
                <path d="M76.6321403,108.372743 L76.5751974,111.962064" id="Stroke-778" stroke="#000000" stroke-width="1.87644615" stroke-linecap="round" stroke-linejoin="round" transform="translate(76.603669, 110.167404) rotate(-4.000000) translate(-76.603669, -110.167404) "></path>
                <path d="M82.1095824,108.066976 L82.0536293,111.656297" id="Stroke-780" stroke="#000000" stroke-width="1.87644615" stroke-linecap="round" stroke-linejoin="round" transform="translate(82.081606, 109.861637) rotate(-4.000000) translate(-82.081606, -109.861637) "></path>
                <path d="M87.5870257,107.761244 L87.5310726,111.350565" id="Stroke-782" stroke="#000000" stroke-width="1.87644615" stroke-linecap="round" stroke-linejoin="round" transform="translate(87.559049, 109.555904) rotate(-4.000000) translate(-87.559049, -109.555904) "></path>
                <path d="M93.0644758,107.455611 L93.0085227,111.044931" id="Stroke-784" stroke="#000000" stroke-width="1.87644615" stroke-linecap="round" stroke-linejoin="round" transform="translate(93.036499, 109.250271) rotate(-4.000000) translate(-93.036499, -109.250271) "></path>
                <path d="M98.5418851,107.149386 L98.485932,110.738707" id="Stroke-786" stroke="#000000" stroke-width="1.87644615" stroke-linecap="round" stroke-linejoin="round" transform="translate(98.513909, 108.944046) rotate(-4.000000) translate(-98.513909, -108.944046) "></path>
                <path d="M104.019328,106.843654 L103.963375,110.432974" id="Stroke-788" stroke="#000000" stroke-width="1.87644615" stroke-linecap="round" stroke-linejoin="round" transform="translate(103.991352, 108.638314) rotate(-4.000000) translate(-103.991352, -108.638314) "></path>
                <path d="M109.496779,106.53802 L109.440825,110.127341" id="Stroke-790" stroke="#000000" stroke-width="1.87644615" stroke-linecap="round" stroke-linejoin="round" transform="translate(109.468802, 108.332681) rotate(-4.000000) translate(-109.468802, -108.332681) "></path>
                <path d="M114.974222,106.232288 L114.918269,109.821609" id="Stroke-792" stroke="#000000" stroke-width="1.87644615" stroke-linecap="round" stroke-linejoin="round" transform="translate(114.946245, 108.026948) rotate(-4.000000) translate(-114.946245, -108.026948) "></path>
                <path d="M120.451566,105.926563 L120.395613,109.515883" id="Stroke-794" stroke="#000000" stroke-width="1.87644615" stroke-linecap="round" stroke-linejoin="round" transform="translate(120.423590, 107.721223) rotate(-4.000000) translate(-120.423590, -107.721223) "></path>
                <path d="M125.930005,105.620894 L125.873062,109.210215" id="Stroke-796" stroke="#000000" stroke-width="1.87644615" stroke-linecap="round" stroke-linejoin="round" transform="translate(125.901534, 107.415555) rotate(-4.000000) translate(-125.901534, -107.415555) "></path>
                <polygon id="Stroke-798" stroke="#000000" stroke-width="1.87644615" stroke-linecap="round" stroke-linejoin="round" transform="translate(345.587257, 148.860721) rotate(-4.000000) translate(-345.587257, -148.860721) " points="243.561309 179.098312 314.598012 118.62313 447.613206 177.229009"></polygon>
                <polygon id="Stroke-800" stroke="#000000" stroke-width="1.87644615" stroke-linecap="round" stroke-linejoin="round" transform="translate(330.123635, 151.164747) rotate(-4.000000) translate(-330.123635, -151.164747) " points="317.961698 140.532773 367.264195 161.138988 292.983076 161.796721"></polygon>
                <path d="M260.095907,180.346526 L260.093402,183.936796" id="Stroke-802" stroke="#000000" stroke-width="1.87644615" stroke-linecap="round" stroke-linejoin="round" transform="translate(260.094654, 182.141661) rotate(-4.000000) translate(-260.094654, -182.141661) "></path>
                <path d="M265.56865,179.96 L265.566146,183.55027" id="Stroke-804" stroke="#000000" stroke-width="1.87644615" stroke-linecap="round" stroke-linejoin="round" transform="translate(265.567398, 181.755135) rotate(-4.000000) translate(-265.567398, -181.755135) "></path>
                <path d="M271.041492,179.573467 L271.038987,183.163737" id="Stroke-806" stroke="#000000" stroke-width="1.87644615" stroke-linecap="round" stroke-linejoin="round" transform="translate(271.040240, 181.368602) rotate(-4.000000) translate(-271.040240, -181.368602) "></path>
                <path d="M276.513347,179.187004 L276.510842,182.777274" id="Stroke-808" stroke="#000000" stroke-width="1.87644615" stroke-linecap="round" stroke-linejoin="round" transform="translate(276.512094, 180.982139) rotate(-4.000000) translate(-276.512094, -180.982139) "></path>
                <path d="M281.986189,178.800471 L281.983684,182.390741" id="Stroke-810" stroke="#000000" stroke-width="1.87644615" stroke-linecap="round" stroke-linejoin="round" transform="translate(281.984936, 180.595606) rotate(-4.000000) translate(-281.984936, -180.595606) "></path>
                <path d="M287.458932,178.413945 L287.456427,182.004215" id="Stroke-812" stroke="#000000" stroke-width="1.87644615" stroke-linecap="round" stroke-linejoin="round" transform="translate(287.457680, 180.209080) rotate(-4.000000) translate(-287.457680, -180.209080) "></path>
                <path d="M292.930786,178.027482 L292.928282,181.617752" id="Stroke-814" stroke="#000000" stroke-width="1.87644615" stroke-linecap="round" stroke-linejoin="round" transform="translate(292.929534, 179.822617) rotate(-4.000000) translate(-292.929534, -179.822617) "></path>
                <path d="M298.403628,177.640949 L298.401124,181.231219" id="Stroke-816" stroke="#000000" stroke-width="1.87644615" stroke-linecap="round" stroke-linejoin="round" transform="translate(298.402376, 179.436084) rotate(-4.000000) translate(-298.402376, -179.436084) "></path>
                <path d="M303.876372,177.254423 L303.873867,180.844693" id="Stroke-818" stroke="#000000" stroke-width="1.87644615" stroke-linecap="round" stroke-linejoin="round" transform="translate(303.875119, 179.049558) rotate(-4.000000) translate(-303.875119, -179.049558) "></path>
                <path d="M309.349214,176.867891 L309.346709,180.458161" id="Stroke-820" stroke="#000000" stroke-width="1.87644615" stroke-linecap="round" stroke-linejoin="round" transform="translate(309.347961, 178.663026) rotate(-4.000000) translate(-309.347961, -178.663026) "></path>
                <path d="M314.822056,176.481358 L314.819551,180.071628" id="Stroke-822" stroke="#000000" stroke-width="1.87644615" stroke-linecap="round" stroke-linejoin="round" transform="translate(314.820803, 178.276493) rotate(-4.000000) translate(-314.820803, -178.276493) "></path>
                <path d="M320.29391,176.094895 L320.291406,179.685165" id="Stroke-824" stroke="#000000" stroke-width="1.87644615" stroke-linecap="round" stroke-linejoin="round" transform="translate(320.292658, 177.890030) rotate(-4.000000) translate(-320.292658, -177.890030) "></path>
                <path d="M325.766654,175.708369 L325.764149,179.298639" id="Stroke-826" stroke="#000000" stroke-width="1.87644615" stroke-linecap="round" stroke-linejoin="round" transform="translate(325.765401, 177.503504) rotate(-4.000000) translate(-325.765401, -177.503504) "></path>
                <path d="M331.239496,175.321836 L331.236991,178.912106" id="Stroke-828" stroke="#000000" stroke-width="1.87644615" stroke-linecap="round" stroke-linejoin="round" transform="translate(331.238243, 177.116971) rotate(-4.000000) translate(-331.238243, -177.116971) "></path>
                <path d="M336.71135,174.935373 L336.708846,178.525643" id="Stroke-830" stroke="#000000" stroke-width="1.87644615" stroke-linecap="round" stroke-linejoin="round" transform="translate(336.710098, 176.730508) rotate(-4.000000) translate(-336.710098, -176.730508) "></path>
                <path d="M342.184192,174.54884 L342.181688,178.13911" id="Stroke-832" stroke="#000000" stroke-width="1.87644615" stroke-linecap="round" stroke-linejoin="round" transform="translate(342.182940, 176.343975) rotate(-4.000000) translate(-342.182940, -176.343975) "></path>
                <path d="M347.656935,174.162314 L347.654431,177.752584" id="Stroke-834" stroke="#000000" stroke-width="1.87644615" stroke-linecap="round" stroke-linejoin="round" transform="translate(347.655683, 175.957449) rotate(-4.000000) translate(-347.655683, -175.957449) "></path>
                <path d="M353.129777,173.775781 L353.127273,177.366051" id="Stroke-836" stroke="#000000" stroke-width="1.87644615" stroke-linecap="round" stroke-linejoin="round" transform="translate(353.128525, 175.570916) rotate(-4.000000) translate(-353.128525, -175.570916) "></path>
                <path d="M358.601632,173.389318 L358.599128,176.979588" id="Stroke-838" stroke="#000000" stroke-width="1.87644615" stroke-linecap="round" stroke-linejoin="round" transform="translate(358.600380, 175.184453) rotate(-4.000000) translate(-358.600380, -175.184453) "></path>
                <path d="M364.074474,173.002785 L364.07197,176.593055" id="Stroke-840" stroke="#000000" stroke-width="1.87644615" stroke-linecap="round" stroke-linejoin="round" transform="translate(364.073222, 174.797920) rotate(-4.000000) translate(-364.073222, -174.797920) "></path>
                <path d="M369.547217,172.616259 L369.544713,176.206529" id="Stroke-842" stroke="#000000" stroke-width="1.87644615" stroke-linecap="round" stroke-linejoin="round" transform="translate(369.545965, 174.411394) rotate(-4.000000) translate(-369.545965, -174.411394) "></path>
                <path d="M375.020059,172.229726 L375.017555,175.819996" id="Stroke-844" stroke="#000000" stroke-width="1.87644615" stroke-linecap="round" stroke-linejoin="round" transform="translate(375.018807, 174.024861) rotate(-4.000000) translate(-375.018807, -174.024861) "></path>
                <path d="M381.689462,171.758683 L381.686958,175.348953" id="Stroke-846" stroke="#000000" stroke-width="1.87644615" stroke-linecap="round" stroke-linejoin="round" transform="translate(381.688210, 173.553818) rotate(-4.000000) translate(-381.688210, -173.553818) "></path>
                <path d="M387.162304,171.372151 L387.1598,174.962421" id="Stroke-848" stroke="#000000" stroke-width="1.87644615" stroke-linecap="round" stroke-linejoin="round" transform="translate(387.161052, 173.167286) rotate(-4.000000) translate(-387.161052, -173.167286) "></path>
                <path d="M392.634159,170.985687 L392.631654,174.575958" id="Stroke-850" stroke="#000000" stroke-width="1.87644615" stroke-linecap="round" stroke-linejoin="round" transform="translate(392.632907, 172.780822) rotate(-4.000000) translate(-392.632907, -172.780822) "></path>
                <path d="M398.106902,170.599162 L398.104398,174.189432" id="Stroke-852" stroke="#000000" stroke-width="1.87644615" stroke-linecap="round" stroke-linejoin="round" transform="translate(398.105650, 172.394297) rotate(-4.000000) translate(-398.105650, -172.394297) "></path>
                <path d="M403.579744,170.212629 L403.57724,173.802899" id="Stroke-854" stroke="#000000" stroke-width="1.87644615" stroke-linecap="round" stroke-linejoin="round" transform="translate(403.578492, 172.007764) rotate(-4.000000) translate(-403.578492, -172.007764) "></path>
                <path d="M409.052586,169.826096 L409.050082,173.416366" id="Stroke-856" stroke="#000000" stroke-width="1.87644615" stroke-linecap="round" stroke-linejoin="round" transform="translate(409.051334, 171.621231) rotate(-4.000000) translate(-409.051334, -171.621231) "></path>
                <path d="M414.524441,169.439633 L414.521936,173.029903" id="Stroke-858" stroke="#000000" stroke-width="1.87644615" stroke-linecap="round" stroke-linejoin="round" transform="translate(414.523188, 171.234768) rotate(-4.000000) translate(-414.523188, -171.234768) "></path>
                <path d="M235.378455,137.66796 C238.911242,137.402987 242.44403,137.137027 245.976817,136.872054 L248.210148,149.158136 C249.673547,142.805558 250.890525,136.3969 251.856119,129.950915 C259.60893,128.970473 267.388322,128.195283 275.181427,127.627329" id="Stroke-860" stroke="#000000" stroke-width="1.87644615" stroke-linecap="round" stroke-linejoin="round" transform="translate(255.279941, 138.392732) rotate(-4.000000) translate(-255.279941, -138.392732) "></path>
                <path d="M256.101917,133.58465 C260.800833,137.372965 265.499748,141.161281 270.197674,144.949597" id="Stroke-862" stroke="#000000" stroke-width="1.87644615" stroke-linecap="round" stroke-linejoin="round" transform="translate(263.149796, 139.267123) rotate(-4.000000) translate(-263.149796, -139.267123) "></path>
                <path d="M267.255932,131.984682 C264.568723,136.093948 260.168289,142.867998 258.66746,147.538959" id="Stroke-864" stroke="#000000" stroke-width="1.87644615" stroke-linecap="round" stroke-linejoin="round" transform="translate(262.961696, 139.761820) rotate(-4.000000) translate(-262.961696, -139.761820) "></path>
                <path d="M237.7658,131.994849 C238.148079,133.103836 238.19903,135.266053 238.58131,136.37504 C238.480271,135.069468 238.904802,132.366109 240.117662,131.860968 C241.044385,131.475439 242.142644,132.07963 242.649811,132.941809 C243.155988,133.803989 243.220587,134.847076 243.27136,135.845763" id="Stroke-866" stroke="#000000" stroke-width="1.87644615" stroke-linecap="round" stroke-linejoin="round" transform="translate(240.518580, 134.058642) rotate(-4.000000) translate(-240.518580, -134.058642) "></path>
                <path d="M173.19042,94.8136015 C175.008689,93.3892534 177.766333,93.3083804 179.660885,94.6245439 C181.555437,95.9416943 182.433553,98.5474313 181.720356,100.739788 C180.526073,104.4128 176.117607,105.672172 172.614541,107.317769 C171.776894,107.711131 170.819197,108.513145 171.182852,109.361608 C171.432863,109.946653 172.170147,110.116869 172.804556,110.193404 C175.542119,110.521113 178.321492,110.508319 181.05755,110.155083" id="Stroke-868" stroke="#000000" stroke-width="1.87644615" stroke-linecap="round" stroke-linejoin="round" transform="translate(176.535259, 102.059423) rotate(-4.000000) translate(-176.535259, -102.059423) "></path>
                <path d="M200.354429,94.2041684 C202.172699,92.7798203 204.930343,92.6989473 206.824895,94.0151108 C208.719447,95.3312743 209.597563,97.9379982 208.884366,100.130355 C207.690083,103.80238 203.281617,105.062739 199.778551,106.708335 C198.940904,107.101698 197.983206,107.903712 198.346861,108.752175 C198.596873,109.33722 199.334157,109.507436 199.968567,109.582984 C202.706129,109.91168 205.485501,109.898886 208.22156,109.545649" id="Stroke-870" stroke="#000000" stroke-width="1.87644615" stroke-linecap="round" stroke-linejoin="round" transform="translate(203.699269, 101.449921) rotate(-4.000000) translate(-203.699269, -101.449921) "></path>
                <path d="M190.401183,98.3085816 C190.573705,100.721382 189.591133,104.546226 189.763655,106.959027" id="Stroke-872" stroke="#000000" stroke-width="1.87644615" stroke-linecap="round" stroke-linejoin="round" transform="translate(190.082419, 102.633804) rotate(-4.000000) translate(-190.082419, -102.633804) "></path>
                <path d="M194.431793,102.660956 C192.032767,102.297483 188.131489,102.970295 185.733453,102.606821" id="Stroke-874" stroke="#000000" stroke-width="1.87644615" stroke-linecap="round" stroke-linejoin="round" transform="translate(190.082623, 102.633889) rotate(-4.000000) translate(-190.082623, -102.633889) "></path>
                <path d="M225.425049,103.354021 C223.027014,102.98956 219.124745,103.663359 216.726709,103.299886" id="Stroke-876" stroke="#000000" stroke-width="1.87644615" stroke-linecap="round" stroke-linejoin="round" transform="translate(221.075879, 103.326694) rotate(-4.000000) translate(-221.075879, -103.326694) "></path>
                <path d="M225.402229,106.565639 C223.004193,106.202165 219.101925,106.874977 216.703889,106.511503" id="Stroke-878" stroke="#000000" stroke-width="1.87644615" stroke-linecap="round" stroke-linejoin="round" transform="translate(221.053059, 106.538571) rotate(-4.000000) translate(-221.053059, -106.538571) "></path>
                <path d="M227.985225,92.0743838 C228.326841,94.7189832 227.875918,96.9456981 228.427398,99.5536366 C231.147174,99.8389224 233.889869,99.9051049 236.61985,99.7502352" id="Stroke-880" stroke="#000000" stroke-width="1.87644615" stroke-linecap="round" stroke-linejoin="round" transform="translate(232.302537, 95.953040) rotate(-4.000000) translate(-232.302537, -95.953040) "></path>
                <path d="M235.289745,91.783373 C235.495914,95.6231781 235.876193,103.857437 236.082363,107.697242" id="Stroke-882" stroke="#000000" stroke-width="1.87644615" stroke-linecap="round" stroke-linejoin="round" transform="translate(235.686054, 99.740308) rotate(-4.000000) translate(-235.686054, -99.740308) "></path>
                <g id="Group-1023" transform="translate(339.574071, 102.381684) rotate(-4.000000) translate(-339.574071, -102.381684) translate(336.061233, 94.653712)" fill="#212121">
                    <path d="M6.85299198,0.117130818 L0.511680301,15.4122249" id="Fill-1020"></path>
                </g>
                <path d="M155.209188,67.4288549 C154.429164,66.0961243 152.393713,66.6965794 151.044085,67.454457 C148.557719,68.8506515 145.681792,71.0622802 146.329171,73.8300263 C146.53049,74.6914319 147.067434,75.434178 147.648973,76.0999163 C150.479525,79.3408295 154.872549,81.771412 155.522853,86.0214494 C155.65587,86.8907977 155.581947,87.8629257 154.994536,88.5196102 C154.55274,89.014345 153.891387,89.2506703 153.244938,89.407048 C149.796877,90.2404046 145.955191,89.201925 143.406185,86.7463717 C142.293405,85.6753962 141.380876,84.1591983 141.725386,82.6549535 C142.170174,80.7095036 144.374101,79.8089196 146.282856,79.2105266" id="Stroke-1170" stroke="#000000" stroke-width="1.87644615" stroke-linecap="round" stroke-linejoin="round" transform="translate(148.615448, 78.165663) rotate(-4.000000) translate(-148.615448, -78.165663) "></path>
                <path d="M273.239509,109.803788 C272.533459,103.169488 271.82642,96.5351891 271.12136,89.9008886 C271.020072,88.9525679 270.925749,87.9519376 271.311391,87.0782802 C271.994445,85.5284029 274.160537,84.9475944 275.638723,85.7755427 C277.116909,86.6034911 277.776746,88.5402758 277.330197,90.1718993 C276.883647,91.8045096 275.481198,93.0805359 273.873382,93.622467 C275.303632,93.6412074 276.733882,93.6609347 278.163142,93.6796758 C278.591723,93.6852983 279.052959,93.7017537 279.394261,93.9590913 C279.764253,94.2371334 279.897533,94.7285066 279.946703,95.1883582 C280.15024,97.126448 279.160021,99.1433336 277.497426,100.171834 C275.835821,101.200335 273.585019,101.191048 271.934757,100.14808" id="Stroke-1176" stroke="#000000" stroke-width="1.87644615" stroke-linecap="round" stroke-linejoin="round" transform="translate(275.502507, 97.601189) rotate(-4.000000) translate(-275.502507, -97.601189) "></path>
            </g>
        </g>
    </g>
</svg>